<svg width="88" height="88" viewBox="0 0 88 88" fill="none" xmlns="http://www.w3.org/2000/svg">
<mask id="mask0" mask-type="alpha" maskUnits="userSpaceOnUse" x="0" y="0" width="88" height="88">
<circle cx="44" cy="44" r="44" fill="#222222"/>
</mask>
<g mask="url(#mask0)">
<circle cx="44" cy="44" r="44" fill="#0095FF"/>
<path fill-rule="evenodd" clip-rule="evenodd" d="M0 35.9049L3.2906 28.2333H8.98133L10.8488 32.5306V28.2333H17.9229L19.0346 31.3393L20.1123 28.2333H51.8678V29.7948C51.8678 29.7948 53.5371 28.2333 56.2806 28.2333L66.5841 28.2693L68.4193 32.5104V28.2333H74.3393L75.9687 30.6695V28.2333H81.943V42.015H75.9687L74.4072 39.5709V42.015H65.7094L64.8347 39.8425H62.4965L61.636 42.015H55.7375C53.3768 42.015 51.8678 40.4854 51.8678 40.4854V42.015H42.9742L41.2091 39.8425V42.015H8.13829L7.26421 39.8425H4.93341L4.0655 42.015H0V35.9049ZM4.45575 29.9323L0.0174561 40.2516H2.90701L3.72594 38.1852H8.48671L9.30138 40.2516H12.2546L7.82054 29.9323H4.45575ZM6.09783 32.3339L7.54898 35.9448H4.64245L6.09783 32.3339ZM12.5603 29.9305V40.2498H15.1401V32.6461L17.8824 40.2498H20.1449L22.8795 32.6461V40.2498H25.4594V29.9305H21.386L19.0548 36.599L16.6665 29.9458L12.5603 29.9305ZM27.2234 40.2498V29.9305H35.6417V32.2388H29.8304V34.0039H35.5059V36.1764H29.8304V38.0094H35.6417V40.2498H27.2234ZM37.1357 40.2516V29.9323H42.8767C44.7789 29.9323 46.4833 31.1086 46.4833 33.2801C46.4833 35.1365 45.0463 36.3322 43.6532 36.4497L47.0476 40.2516H43.895L40.8018 36.5855H39.7156V40.2516H37.1357ZM42.6645 32.2406H39.7156V34.413H42.7027C43.2198 34.413 43.8865 34.0124 43.8865 33.3268C43.8865 32.7939 43.3719 32.2406 42.6645 32.2406ZM50.171 40.2498H47.5369V29.9305H50.171V40.2498ZM55.8482 40.2498H56.4168L57.503 37.9959H56.8241C55.1811 37.9959 54.0406 37.1565 54.0406 35.1581C54.0406 33.4752 55.038 32.3746 56.4483 32.3746H59.4039V29.9305H56.5526C53.0785 29.9305 51.4269 32.1099 51.4269 35.1326C51.4269 38.0824 53.0972 40.2498 55.8482 40.2498ZM62.0298 29.9323L57.5916 40.2516H60.4811L61.3 38.1852H66.0608L66.8755 40.2516H69.8287L65.3946 29.9323H62.0298ZM63.6719 32.3339L65.1231 35.9448H62.2165L63.6719 32.3339ZM70.1304 29.9305V40.2498H72.7102V33.5966L77.0042 40.2498H80.1781V29.9305H77.5983V36.414L73.4103 29.9305H70.1304Z" fill="white"/>
<path fill-rule="evenodd" clip-rule="evenodd" d="M17.0391 46.292V60.0736H31.5397L33.1271 57.9889L34.6904 60.0736H43.4482V56.8828H45.417C47.1252 56.8828 47.9153 56.3651 47.9153 56.3651V60.0736H53.6995V57.9011L55.4647 60.0736H84.7931C86.3951 60.0598 87.7802 59.1232 87.7802 59.1232V56.3349C87.3579 57.4935 86.321 58.3085 84.6345 58.3085H79.1363V56.0681H84.2993C85.0632 56.0681 85.394 55.6553 85.394 55.2025C85.394 54.7687 85.0643 54.3302 84.2993 54.3302H81.9662C79.9382 54.3302 78.8087 53.0946 78.8087 51.2395C78.8087 49.5849 79.843 47.9893 82.8566 47.9893H87.7802V46.292H34.8142L33.1968 48.3329L31.6312 46.292H17.0391ZM87.7802 48.2036L86.7943 50.3111H82.4493C81.6187 50.3111 81.3631 50.7469 81.3631 51.1631C81.3631 51.5909 81.679 52.0626 82.3135 52.0626H84.7576C86.4097 52.0626 87.3784 52.7475 87.7802 53.7717V48.2036ZM18.8042 47.9893V58.3085H27.2225V56.0681H21.4112V54.2351H27.0868V52.0626H21.4112V50.2975H27.2225V47.9893H18.8042ZM68.4725 58.3085H60.0542V47.9893H68.4725V50.2975H62.6612V52.0626H68.3096V54.2351H62.6612V56.0681H68.4725V58.3085ZM31.6481 53.2125L27.5493 58.3085H30.7528L33.1205 55.1304L35.5471 58.3085H38.7968L34.6904 53.1489L38.8317 47.9893H35.7088L33.2011 51.2183L30.7019 47.9893H27.4517L31.6481 53.2125ZM39.1042 47.991V58.3102H41.7519V55.0515H44.4675C46.7653 55.0515 48.507 53.8325 48.507 51.4618C48.507 49.498 47.141 47.991 44.8027 47.991H39.1042ZM41.7519 50.3247H44.6118C45.3541 50.3247 45.8847 50.7797 45.8847 51.5128C45.8847 52.2015 45.3568 52.7008 44.6033 52.7008H41.7519V50.3247ZM52.206 58.3085H49.6262V47.9893H55.3672C57.2694 47.9893 58.9738 49.1655 58.9738 51.3371C58.9738 53.1934 57.5368 54.3891 56.1436 54.5067L59.5381 58.3085H56.3855L53.2923 54.6424H52.206V58.3085ZM55.155 50.2975H52.206V52.47H55.1932C55.7103 52.47 56.377 52.0693 56.377 51.3837C56.377 50.8509 55.8624 50.2975 55.155 50.2975ZM69.6684 58.3085V56.0681H74.8314C75.5954 56.0681 75.9261 55.6553 75.9261 55.2025C75.9261 54.7687 75.5964 54.3302 74.8314 54.3302H72.4983C70.4703 54.3302 69.3408 53.0946 69.3408 51.2395C69.3408 49.5849 70.3751 47.9893 73.3888 47.9893H78.4126L77.3264 50.3111H72.9814C72.1508 50.3111 71.8952 50.7469 71.8952 51.1631C71.8952 51.5909 72.2111 52.0626 72.8456 52.0626H75.2897C77.5504 52.0626 78.5314 53.345 78.5314 55.0243C78.5314 56.8298 77.4383 58.3085 75.1666 58.3085H69.6684Z" fill="white"/>
</g>
</svg>
