<svg width="88" height="88" viewBox="0 0 88 88" fill="none" xmlns="http://www.w3.org/2000/svg">
<mask id="mask0" mask-type="alpha" maskUnits="userSpaceOnUse" x="0" y="0" width="88" height="88">
<circle cx="44" cy="44" r="44" fill="#222222"/>
</mask>
<g mask="url(#mask0)">
<circle cx="44" cy="44" r="44" fill="#0086E6"/>
<path d="M57.7938 35.7159C58.2427 32.8633 57.7908 30.9227 56.243 29.1644C54.5389 27.2291 51.4604 26.4 47.5216 26.4H36.0882C35.2834 26.4 34.5977 26.9837 34.4726 27.7766L29.7114 57.8679C29.6177 58.4618 30.0782 58.9984 30.6807 58.9984H37.7391L37.252 62.0777C37.17 62.5972 37.5724 63.0667 38.1 63.0667H44.0497C44.7538 63.0667 45.3533 62.5561 45.4631 61.8626L45.5215 61.5608L46.6422 54.4768L46.7145 54.0854C46.8243 53.3923 47.4238 52.881 48.1279 52.881H49.0178C54.7817 52.881 59.2948 50.5472 60.6134 43.797C61.1645 40.9766 60.8794 38.6222 59.4222 36.967C58.982 36.4673 58.4334 36.0535 57.7938 35.7159Z" fill="#CDE9FD"/>
<path opacity="0.68" fill-rule="evenodd" clip-rule="evenodd" d="M57.7938 35.7159C58.2427 32.8633 57.7908 30.9227 56.243 29.1644C54.5389 27.2291 51.4604 26.4 47.5216 26.4H36.0882C35.2834 26.4 34.5977 26.9837 34.4726 27.7766L29.7114 57.8679C29.6177 58.4618 30.0782 58.9984 30.6807 58.9984H37.7391L39.5122 47.7917L39.4571 48.1431C39.5826 47.3506 40.2619 46.7665 41.0672 46.7665H44.4222C51.0108 46.7665 56.1699 44.0984 57.6769 36.3825C57.7219 36.1547 57.7597 35.9332 57.7938 35.7159Z" fill="white"/>
<path fill-rule="evenodd" clip-rule="evenodd" d="M41.4171 35.7536C41.4924 35.277 41.7997 34.8864 42.213 34.6892C42.4007 34.5996 42.6109 34.5495 42.8308 34.5495H51.7931C52.855 34.5495 53.8449 34.619 54.7498 34.7643C55.0083 34.8057 55.2601 34.8535 55.5048 34.9077C55.7491 34.9618 55.9867 35.022 56.2164 35.0892C56.3314 35.1224 56.4442 35.1579 56.5554 35.1945C56.9998 35.3416 57.4139 35.5149 57.7946 35.7162C58.2434 32.8637 57.7916 30.9231 56.2437 29.1648C54.5389 27.2291 51.4604 26.4 47.5216 26.4H36.0882C35.2834 26.4 34.5977 26.9837 34.4726 27.7766L29.7114 57.8679C29.6177 58.4618 30.0782 58.9984 30.6807 58.9984H37.7391L39.5122 47.7917L41.4171 35.7536Z" fill="white"/>
</g>
</svg>
