<svg width="88" height="88" viewBox="0 0 88 88" fill="none" xmlns="http://www.w3.org/2000/svg">
<circle cx="44" cy="44" r="44" fill="#1B17E8"/>
<path fill-rule="evenodd" clip-rule="evenodd" d="M45.0083 40.562C44.9748 43.218 47.3602 44.7002 49.1571 45.5814C51.0033 46.4856 51.6234 47.0654 51.6164 47.8739C51.6023 49.1114 50.1436 49.6575 48.7783 49.6788C46.3965 49.716 45.0118 49.0317 43.9108 48.5139L43.0529 52.5546C44.1574 53.067 46.2027 53.5138 48.3238 53.5333C53.3023 53.5333 56.5597 51.06 56.5773 47.225C56.5966 42.3581 49.8882 42.0886 49.934 39.9131C49.9498 39.2535 50.5752 38.5496 51.9458 38.3706C52.6241 38.2801 54.4967 38.211 56.6195 39.195L57.4528 35.2855C56.3113 34.8671 54.8438 34.4664 53.0169 34.4664C48.3308 34.4664 45.0347 36.9734 45.0083 40.562M65.4592 34.8033C64.5502 34.8033 63.7839 35.337 63.4421 36.1561L56.3302 53.2461H61.3052L62.2952 50.4926H68.3748L68.9491 53.2461H73.3339L69.5076 34.8033H65.4592M66.158 39.7854L67.5938 46.7108H63.6617L66.158 39.7854M38.9768 34.8033L35.0553 53.2461H39.796L43.7157 34.8033H38.9768M31.9641 34.8033L27.0297 47.3562L25.0337 36.6827C24.7994 35.4912 23.8745 34.8033 22.8474 34.8033H14.7807L14.668 35.3387C16.3239 35.7004 18.2054 36.2837 19.3452 36.9078C20.0429 37.289 20.2419 37.6224 20.4709 38.5284L24.2515 53.2461H29.2617L36.9426 34.8033H31.9641" fill="white"/>
</svg>
